# xmcd CD database file
# Copyright (C) 1997 Ti Kan
# 
# Track frame offsets:
#     182
#     14327
#     31630
#     44140
#     58060
#     69997
#     86902
#     99175
#     111470
#     124972
#     138785
#     148977
# 
# Disc length: 2178 seconds
# 
# Revision: 1
# Processed by: cddbd v1.4b41PL1 Copyright (c) Steve Scherf et al.
# Submitted via: DiscPlay 4.0.4
# 
DISCID=ad08800c
DTITLE=Mitty Colllier - Sharing You   ( Blues Journey )
DYEAR=1900
DGENRE=
TTITLE0=Sharing You
TTITLE1=No Faith, No Love
TTITLE2=Hallelujah (I Love Him So)
TTITLE3=Little Miss Loneliness
TTITLE4=Together
TTITLE5=I Had A Talk With My Man
TTITLE6=Let Them Talk
TTITLE7=Would You Have Listened
TTITLE8=Come Back Baby
TTITLE9=Drown In My Own Tears
TTITLE10=My Babe
TTITLE11=I Gotta Get Away From It All
EXTD=
EXTT0=
EXTT1=
EXTT2=
EXTT3=
EXTT4=
EXTT5=
EXTT6=
EXTT7=
EXTT8=
EXTT9=
EXTT10=
EXTT11=
PLAYORDER=
